#tb 0: 1/25
#media_type 0: video
#codec_id 0: rawvideo
#dimensions 0: 720x240
#sar 0: 1/1
0,          0,          0,        1,   518400, 0xc9a6c44a
0,          1,          1,        1,   518400, 0x69aebed0
0,          2,          2,        1,   518400, 0x579c56eb
0,          3,          3,        1,   518400, 0xa362c795
0,          4,          4,        1,   518400, 0xaa91f040
0,          5,          5,        1,   518400, 0x23fbd4bf
0,          6,          6,        1,   518400, 0x1964b60f
0,          7,          7,        1,   518400, 0xfe1c25d5
0,          8,          8,        1,   518400, 0x959474f6
0,          9,          9,        1,   518400, 0xa39557ac
0,         10,         10,        1,   518400, 0x04ad1eaa
0,         11,         11,        1,   518400, 0x8b290745
0,         12,         12,        1,   518400, 0x2de33aab
0,         13,         13,        1,   518400, 0xaada1b0a
0,         14,         14,        1,   518400, 0xf7d23ea4
0,         15,         15,        1,   518400, 0xdbd0d590
0,         16,         16,        1,   518400, 0x457c8b65
0,         17,         17,        1,   518400, 0x1963514d
0,         18,         18,        1,   518400, 0x2774fa12
0,         19,         19,        1,   518400, 0xd56b3113
